<svg width="360" height="53" viewBox="0 0 360 53" fill="none" xmlns="http://www.w3.org/2000/svg">
<rect width="360" height="53" fill="#F5F5F5"/>
<rect width="360" height="53" fill="white"/>
<path d="M262.041 37.52C261.491 37.52 261.041 37.07 261.041 36.52V33.35C261.041 31.54 260.331 29.84 259.051 28.55C258.501 28.01 257.881 27.57 257.201 27.24C256.871 27.08 256.661 26.77 256.631 26.41C256.601 26.05 256.781 25.7 257.081 25.51C258.551 24.55 259.421 22.93 259.421 21.18C259.421 18.33 257.101 16.02 254.261 16.02C251.411 16.02 249.091 18.34 249.091 21.18C249.091 22.93 249.971 24.55 251.441 25.51C251.741 25.71 251.911 26.05 251.891 26.41C251.871 26.77 251.651 27.09 251.321 27.24C248.991 28.36 247.481 30.75 247.481 33.34V36.51C247.481 37.06 247.031 37.51 246.481 37.51C245.931 37.51 245.481 37.06 245.481 36.51V33.34C245.481 30.49 246.891 27.83 249.161 26.2C247.851 24.87 247.091 23.07 247.091 21.16C247.091 17.21 250.311 14 254.261 14C258.211 14 261.421 17.21 261.421 21.16C261.421 23.07 260.671 24.87 259.361 26.2C259.751 26.48 260.111 26.78 260.461 27.12C262.121 28.78 263.041 30.99 263.041 33.33V36.5C263.041 37.07 262.591 37.52 262.041 37.52Z" fill="black"/>
<path d="M156.911 35.42C151.011 35.42 146.211 30.62 146.211 24.72C146.211 18.82 151.011 14.02 156.911 14.02C162.811 14.02 167.611 18.82 167.611 24.72C167.611 30.62 162.811 35.42 156.911 35.42ZM156.911 16.01C152.111 16.01 148.211 19.91 148.211 24.71C148.211 29.51 152.111 33.41 156.911 33.41C161.711 33.41 165.611 29.51 165.611 24.71C165.611 19.91 161.711 16.01 156.911 16.01Z" fill="black"/>
<path d="M168.741 37.53C168.481 37.53 168.231 37.43 168.031 37.24L163.071 32.28C162.681 31.89 162.681 31.26 163.071 30.87C163.461 30.48 164.091 30.48 164.481 30.87L169.441 35.83C169.831 36.22 169.831 36.85 169.441 37.24C169.251 37.43 168.991 37.53 168.741 37.53Z" fill="black"/>
<path d="M117.111 37.52H100.701C100.231 37.52 99.8209 37.19 99.7209 36.73L97.0209 24.36C96.9609 24.06 97.0309 23.76 97.2209 23.52C97.4109 23.28 97.7009 23.15 98.0009 23.15H119.821C120.121 23.15 120.411 23.29 120.601 23.52C120.791 23.76 120.861 24.06 120.801 24.36L118.091 36.73C117.991 37.19 117.581 37.52 117.111 37.52ZM101.511 35.52H116.311L118.581 25.15H99.2409L101.511 35.52Z" fill="black"/>
<path d="M100.861 25.15C100.671 25.15 100.471 25.09 100.301 24.98C99.8409 24.67 99.7208 24.05 100.031 23.59L106.171 14.46C106.481 14 107.101 13.88 107.561 14.19C108.021 14.5 108.141 15.12 107.831 15.58L101.691 24.71C101.501 24.99 101.181 25.15 100.861 25.15Z" fill="black"/>
<path d="M116.951 24.95C116.721 24.95 116.481 24.87 116.291 24.7L108.981 18.34C108.561 17.98 108.521 17.35 108.881 16.93C109.241 16.51 109.881 16.47 110.291 16.83L117.601 23.19C118.021 23.55 118.061 24.18 117.701 24.6C117.511 24.83 117.231 24.95 116.951 24.95Z" fill="black"/>
<path d="M105.781 33.96C105.321 33.96 104.911 33.64 104.801 33.17L103.751 28.38C103.631 27.84 103.971 27.31 104.511 27.19C105.051 27.07 105.581 27.41 105.701 27.95L106.751 32.74C106.871 33.28 106.531 33.81 105.991 33.93C105.921 33.96 105.851 33.96 105.781 33.96Z" fill="black"/>
<path d="M112.041 33.96C111.971 33.96 111.901 33.95 111.831 33.94C111.291 33.82 110.951 33.29 111.071 32.75L112.121 27.96C112.241 27.42 112.771 27.08 113.311 27.2C113.851 27.32 114.191 27.85 114.071 28.39L113.021 33.18C112.921 33.65 112.501 33.96 112.041 33.96Z" fill="black"/>
<path d="M208.091 37.52C207.831 37.52 207.581 37.42 207.381 37.23L197.611 27.46C194.581 24.37 194.611 19.38 197.661 16.33C199.161 14.83 201.141 14.01 203.251 14.01C205.031 14.02 206.711 14.6 208.081 15.66C211.171 13.26 215.671 13.49 218.511 16.33C220.001 17.82 220.821 19.8 220.831 21.91C220.831 24 220.021 25.96 218.561 27.45L208.791 37.22C208.611 37.42 208.351 37.52 208.091 37.52ZM203.251 16.01C201.681 16.01 200.201 16.63 199.081 17.74C196.801 20.02 196.781 23.74 199.041 26.05L208.091 35.1L217.141 26.05C218.231 24.94 218.831 23.48 218.831 21.92C218.831 20.34 218.211 18.86 217.101 17.75C214.811 15.46 211.081 15.45 208.781 17.71C208.391 18.09 207.771 18.09 207.381 17.71C206.281 16.62 204.821 16.02 203.251 16.01Z" fill="black"/>
</svg>
