<svg width="70" height="55" viewBox="0 0 70 55" fill="none" xmlns="http://www.w3.org/2000/svg">
<path d="M23.96 54.5C11.13 54.5 0.690002 44.06 0.690002 31.23C0.690002 18.4 11.13 7.95996 23.96 7.95996C36.79 7.95996 47.23 18.4 47.23 31.23C47.24 44.06 36.8 54.5 23.96 54.5ZM23.96 9.94998C12.23 9.94998 2.69 19.49 2.69 31.22C2.69 42.95 12.23 52.49 23.96 52.49C35.69 52.49 45.23 42.95 45.23 31.22C45.24 19.49 35.69 9.94998 23.96 9.94998Z" fill="black"/>
<path d="M46.24 46.9699C33.41 46.9699 22.97 36.53 22.97 23.7C22.97 10.87 33.41 0.429932 46.24 0.429932C59.07 0.429932 69.51 10.87 69.51 23.7C69.51 36.53 59.07 46.9699 46.24 46.9699ZM46.24 2.41995C34.51 2.41995 24.97 11.9599 24.97 23.6899C24.97 35.4199 34.51 44.9599 46.24 44.9599C57.97 44.9599 67.51 35.4199 67.51 23.6899C67.51 11.9699 57.97 2.41995 46.24 2.41995Z" fill="black"/>
</svg>
