<svg width="140" height="50" viewBox="0 0 140 50" fill="none" xmlns="http://www.w3.org/2000/svg">
<path d="M0 16.9653V25.8874C3.03593 25.8852 6.04248 26.4843 8.84762 27.6503C11.6528 28.8163 14.2014 30.5263 16.3478 32.6825C18.4936 34.838 20.1954 37.397 21.3558 40.2134C22.5162 43.0297 23.1124 46.0481 23.1104 49.096H31.9884C31.9804 40.578 28.6078 32.4111 22.6107 26.3873C16.6137 20.3636 8.48197 16.9751 0 16.9653H0Z" fill="black"/>
<path d="M44.3981 0.903564H30.3285C37.4461 5.43323 43.4769 11.4889 47.9885 18.636V4.50662C47.9878 3.55079 47.6092 2.63435 46.936 1.95872C46.2627 1.28309 45.3499 0.903564 44.3981 0.903564Z" fill="black"/>
<path d="M8.84006 0.903564H0V8.93655C10.6027 8.94763 20.768 13.1823 28.2654 20.7113C35.7628 28.2403 39.9798 38.4487 39.9912 49.0964H47.9889V40.2188C46.1806 30.4617 41.4725 21.4832 34.4845 14.4654C27.4964 7.44762 18.5559 2.71951 8.84006 0.903564Z" fill="black"/>
<path d="M69.7497 6.2085H64.1148V34.7311H69.7497V6.2085Z" fill="black"/>
<path d="M90.4682 18.5661C89.5301 17.7097 88.4321 17.0489 87.2378 16.6219C84.6722 15.7172 81.8763 15.7172 79.3108 16.6219C78.1159 17.0486 77.0174 17.7095 76.0791 18.5661C75.1588 19.4181 74.4237 20.4517 73.9196 21.6022C73.3986 22.8574 73.1303 24.2037 73.1303 25.5636C73.1303 26.9234 73.3986 28.2698 73.9196 29.5249C74.4218 30.6787 75.1571 31.7152 76.0791 32.5687C77.0158 33.4259 78.1137 34.0865 79.3082 34.5116C81.8735 35.4179 84.67 35.4179 87.2352 34.5116C88.4302 34.0865 89.5285 33.4259 90.4657 32.5687C91.3872 31.7149 92.1225 30.6785 92.6252 29.5249C93.1461 28.2698 93.4144 26.9234 93.4144 25.5636C93.4144 24.2037 93.1461 22.8574 92.6252 21.6022C92.1215 20.4521 91.3873 19.4185 90.4682 18.5661ZM86.5988 28.9225C85.6863 29.7479 84.5017 30.2047 83.2736 30.2047C82.0455 30.2047 80.861 29.7479 79.9485 28.9225C79.1816 27.9717 78.7631 26.7852 78.7631 25.5617C78.7631 24.3381 79.1816 23.1516 79.9485 22.2008C80.861 21.3754 82.0455 20.9186 83.2736 20.9186C84.5017 20.9186 85.6863 21.3754 86.5988 22.2008C87.3657 23.1516 87.7842 24.3381 87.7842 25.5617C87.7842 26.7852 87.3657 27.9717 86.5988 28.9225Z" fill="black"/>
<path d="M110.698 18.8105H110.627C110.367 18.4431 110.064 18.1077 109.726 17.8111C109.316 17.4469 108.862 17.1359 108.374 16.8853C107.143 16.2507 105.775 15.9272 104.391 15.943C103.178 15.9217 101.979 16.2005 100.898 16.7547C99.8914 17.2782 99.0025 18.0038 98.2865 18.8866C97.5564 19.7965 96.9964 20.8315 96.6335 21.9418C96.2475 23.0856 96.0508 24.2852 96.0513 25.4928C96.037 26.7892 96.2534 28.0776 96.6903 29.2975C97.0861 30.4108 97.7031 31.4317 98.5038 32.2982C99.3015 33.1461 100.27 33.814 101.344 34.2576C102.512 34.7357 103.764 34.9729 105.025 34.9551C105.958 34.9389 106.88 34.7538 107.748 34.4085C108.721 34.038 109.563 33.3883 110.171 32.5404H110.247V34.3159C110.268 34.9081 110.171 35.4986 109.961 36.0525C109.752 36.6064 109.434 37.1125 109.026 37.541C108.509 38.0006 107.904 38.3499 107.249 38.5679C106.593 38.7859 105.9 38.868 105.212 38.8093C104.121 38.8215 103.04 38.6029 102.039 38.1676C101.042 37.7205 100.113 37.1366 99.2766 36.4326L96.1586 41.106C97.4331 42.1369 98.9228 42.8657 100.517 43.2379C102.094 43.6022 103.707 43.7855 105.326 43.7846C108.882 43.7846 111.53 42.8854 113.27 41.087C115.011 39.2887 115.881 36.6541 115.882 33.1834V16.3958H110.704L110.698 18.8105ZM110.36 27.1669C110.137 27.7038 109.811 28.1912 109.401 28.6013C108.983 29.0194 108.493 29.3581 107.955 29.6006C107.396 29.8499 106.792 29.9786 106.18 29.9786C105.569 29.9786 104.964 29.8499 104.405 29.6006C103.874 29.3546 103.391 29.0163 102.977 28.6013C102.565 28.1877 102.238 27.6966 102.014 27.1561C101.791 26.6155 101.676 26.0361 101.676 25.451C101.676 24.8658 101.791 24.2864 102.014 23.7459C102.238 23.2053 102.565 22.7142 102.977 22.3007C103.391 21.8857 103.874 21.547 104.405 21.3C104.964 21.0517 105.569 20.9234 106.18 20.9234C106.791 20.9234 107.396 21.0517 107.955 21.3C108.493 21.5436 108.983 21.8825 109.401 22.3007C110.021 22.9264 110.443 23.7223 110.613 24.5882C110.784 25.4541 110.696 26.3513 110.36 27.1669Z" fill="black"/>
<path d="M137.051 18.5661C136.113 17.7097 135.015 17.0489 133.821 16.6219C131.255 15.7172 128.459 15.7172 125.894 16.6219C124.699 17.0486 123.601 17.7095 122.662 18.5661C121.742 19.4181 121.007 20.4517 120.503 21.6022C119.982 22.8574 119.713 24.2037 119.713 25.5636C119.713 26.9234 119.982 28.2698 120.503 29.5249C121.005 30.6787 121.74 31.7152 122.662 32.5687C123.6 33.4262 124.698 34.0868 125.894 34.5116C128.459 35.4179 131.256 35.4179 133.821 34.5116C135.016 34.0865 136.114 33.4259 137.051 32.5687C137.973 31.7152 138.709 30.6787 139.211 29.5249C139.732 28.2698 140 26.9234 140 25.5636C140 24.2037 139.732 22.8574 139.211 21.6022C138.707 20.4517 137.972 19.4181 137.051 18.5661ZM133.182 28.9225C132.269 29.7479 131.085 30.2047 129.857 30.2047C128.629 30.2047 127.444 29.7479 126.532 28.9225C125.765 27.9717 125.346 26.7852 125.346 25.5617C125.346 24.3381 125.765 23.1516 126.532 22.2008C127.444 21.3754 128.629 20.9186 129.857 20.9186C131.085 20.9186 132.269 21.3754 133.182 22.2008C133.949 23.1516 134.367 24.3381 134.367 25.5617C134.367 26.7852 133.949 27.9717 133.182 28.9225Z" fill="black"/>
</svg>
